HIERARCHY
ROOT Root
{
  OFFSET 0.0 0.0 0.0
  CHANNELS 6 Xposition Yposition Zposition Zrotation Yrotation Xrotation
  JOINT Hips
  {
    OFFSET 0.0 100.0 0.0
    CHANNELS 6 Xposition Yposition Zposition Zrotation Yrotation Xrotation
    JOINT Spine1
    {
      OFFSET -0.013727 5.003763 -0.053727
      CHANNELS 3 Zrotation Yrotation Xrotation
      JOINT Spine2
      {
        OFFSET -0.0 7.125301 -0.029825
        CHANNELS 3 Zrotation Yrotation Xrotation
        JOINT Chest
        {
          OFFSET -1e-06 7.550063 -0.815971
          CHANNELS 3 Zrotation Yrotation Xrotation
          JOINT Neck1
          {
            OFFSET -0.181677 26.311295 -0.553348
            CHANNELS 3 Zrotation Yrotation Xrotation
            JOINT Neck2
            {
              OFFSET -3e-06 7.709397 2.302585
              CHANNELS 3 Zrotation Yrotation Xrotation
              JOINT Head
              {
                OFFSET -5e-06 6.128916 1.953709
                CHANNELS 3 Zrotation Yrotation Xrotation
                JOINT HeadEnd
                {
                  OFFSET 0.003598 16.065403 -1.835379
                  CHANNELS 3 Zrotation Yrotation Xrotation
                }
                JOINT Jaw
                {
                  OFFSET 0.002637 0.475592 3.094941
                  CHANNELS 3 Zrotation Yrotation Xrotation
                }
                JOINT LeftEye
                {
                  OFFSET 3.206381 5.380205 7.586883
                  CHANNELS 3 Zrotation Yrotation Xrotation
                }
                JOINT RightEye
                {
                  OFFSET -3.22244 5.361869 7.558234
                  CHANNELS 3 Zrotation Yrotation Xrotation
                }
              }
            }
          }
          JOINT LeftShoulder
          {
            OFFSET 1.621652 23.237164 5.113413
            CHANNELS 3 Zrotation Yrotation Xrotation
            JOINT LeftArm
            {
              OFFSET 14.919846 2e-06 -5.502326
              CHANNELS 3 Zrotation Yrotation Xrotation
              JOINT LeftForeArm
              {
                OFFSET 28.739307 0.0 -0.002588
                CHANNELS 3 Zrotation Yrotation Xrotation
                JOINT LeftHand
                {
                  OFFSET 27.093981 -1e-06 0.002609
                  CHANNELS 3 Zrotation Yrotation Xrotation
                  JOINT LeftHandThumb1
                  {
                    OFFSET 2.276482 -1.392045 3.191413
                    CHANNELS 3 Zrotation Yrotation Xrotation
                    JOINT LeftHandThumb2
                    {
                      OFFSET 4.012836 -1.828127 1.641654
                      CHANNELS 3 Zrotation Yrotation Xrotation
                      JOINT LeftHandThumb3
                      {
                        OFFSET 2.798515 0.0 -3e-06
                        CHANNELS 3 Zrotation Yrotation Xrotation
                        JOINT LeftHandThumbEnd
                        {
                          OFFSET 3.180793 -4e-06 4e-06
                          CHANNELS 3 Zrotation Yrotation Xrotation
                        }
                      }
                    }
                  }
                  JOINT LeftHandIndex1
                  {
                    OFFSET 3.247555 -0.531998 2.296169
                    CHANNELS 3 Zrotation Yrotation Xrotation
                    JOINT LeftHandIndex2
                    {
                      OFFSET 6.364578 0.01206 0.1786
                      CHANNELS 3 Zrotation Yrotation Xrotation
                      JOINT LeftHandIndex3
                      {
                        OFFSET 3.662364 0.0 0.0
                        CHANNELS 3 Zrotation Yrotation Xrotation
                        JOINT LeftHandIndex4
                        {
                          OFFSET 2.329242 4e-06 4e-06
                          CHANNELS 3 Zrotation Yrotation Xrotation
                          JOINT LeftHandIndexEnd
                          {
                            OFFSET 2.759615 -0.180537 -0.113024
                            CHANNELS 3 Zrotation Yrotation Xrotation
                          }
                        }
                      }
                    }
                  }
                  JOINT LeftHandMiddle1
                  {
                    OFFSET 3.163495 0.240981 1.000332
                    CHANNELS 3 Zrotation Yrotation Xrotation
                    JOINT LeftHandMiddle2
                    {
                      OFFSET 6.19078 -0.259278 -1.002548
                      CHANNELS 3 Zrotation Yrotation Xrotation
                      JOINT LeftHandMiddle3
                      {
                        OFFSET 4.35652 -4e-06 -1e-06
                        CHANNELS 3 Zrotation Yrotation Xrotation
                        JOINT LeftHandMiddle4
                        {
                          OFFSET 2.996877 -8e-06 0.0
                          CHANNELS 3 Zrotation Yrotation Xrotation
                          JOINT LeftHandMiddleEnd
                          {
                            OFFSET 2.304287 -0.294569 -0.031741
                            CHANNELS 3 Zrotation Yrotation Xrotation
                          }
                        }
                      }
                    }
                  }
                  JOINT LeftHandRing1
                  {
                    OFFSET 2.882643 -0.053652 -0.322543
                    CHANNELS 3 Zrotation Yrotation Xrotation
                    JOINT LeftHandRing2
                    {
                      OFFSET 5.854541 -0.486202 -1.373841
                      CHANNELS 3 Zrotation Yrotation Xrotation
                      JOINT LeftHandRing3
                      {
                        OFFSET 4.350578 0.0 3e-06
                        CHANNELS 3 Zrotation Yrotation Xrotation
                        JOINT LeftHandRing4
                        {
                          OFFSET 2.651321 7e-06 2e-06
                          CHANNELS 3 Zrotation Yrotation Xrotation
                          JOINT LeftHandRingEnd
                          {
                            OFFSET 1.936105 0.077687 -7.1e-05
                            CHANNELS 3 Zrotation Yrotation Xrotation
                          }
                        }
                      }
                    }
                  }
                  JOINT LeftHandPinky1
                  {
                    OFFSET 2.8655 -0.310005 -1.600378
                    CHANNELS 3 Zrotation Yrotation Xrotation
                    JOINT LeftHandPinky2
                    {
                      OFFSET 5.087849 -1.331141 -1.77123
                      CHANNELS 3 Zrotation Yrotation Xrotation
                      JOINT LeftHandPinky3
                      {
                        OFFSET 3.070974 4e-06 0.0
                        CHANNELS 3 Zrotation Yrotation Xrotation
                        JOINT LeftHandPinky4
                        {
                          OFFSET 1.549672 0.0 1e-06
                          CHANNELS 3 Zrotation Yrotation Xrotation
                          JOINT LeftHandPinkyEnd
                          {
                            OFFSET 1.944893 -0.157802 0.057219
                            CHANNELS 3 Zrotation Yrotation Xrotation
                          }
                        }
                      }
                    }
                  }
                }
              }
            }
          }
          JOINT RightShoulder
          {
            OFFSET -1.380118 23.180309 5.214158
            CHANNELS 3 Zrotation Yrotation Xrotation
            JOINT RightArm
            {
              OFFSET -15.037196 1.2e-05 -5.545604
              CHANNELS 3 Zrotation Yrotation Xrotation
              JOINT RightForeArm
              {
                OFFSET -28.736639 2e-06 -0.002597
                CHANNELS 3 Zrotation Yrotation Xrotation
                JOINT RightHand
                {
                  OFFSET -27.133619 -0.0 0.002613
                  CHANNELS 3 Zrotation Yrotation Xrotation
                  JOINT RightHandThumb1
                  {
                    OFFSET -2.274032 -1.383988 3.163127
                    CHANNELS 3 Zrotation Yrotation Xrotation
                    JOINT RightHandThumb2
                    {
                      OFFSET -4.011429 -1.827466 1.640914
                      CHANNELS 3 Zrotation Yrotation Xrotation
                      JOINT RightHandThumb3
                      {
                        OFFSET -2.794935 -4e-06 -3e-06
                        CHANNELS 3 Zrotation Yrotation Xrotation
                        JOINT RightHandThumbEnd
                        {
                          OFFSET -3.183852 4e-06 1e-06
                          CHANNELS 3 Zrotation Yrotation Xrotation
                        }
                      }
                    }
                  }
                  JOINT RightHandIndex1
                  {
                    OFFSET -3.253266 -0.520057 2.282866
                    CHANNELS 3 Zrotation Yrotation Xrotation
                    JOINT RightHandIndex2
                    {
                      OFFSET -6.341917 0.012471 0.178266
                      CHANNELS 3 Zrotation Yrotation Xrotation
                      JOINT RightHandIndex3
                      {
                        OFFSET -3.654871 -8e-06 -0.0
                        CHANNELS 3 Zrotation Yrotation Xrotation
                        JOINT RightHandIndex4
                        {
                          OFFSET -2.327586 0.0 1e-06
                          CHANNELS 3 Zrotation Yrotation Xrotation
                          JOINT RightHandIndexEnd
                          {
                            OFFSET -2.76179 -0.180656 -0.113078
                            CHANNELS 3 Zrotation Yrotation Xrotation
                          }
                        }
                      }
                    }
                  }
                  JOINT RightHandMiddle1
                  {
                    OFFSET -3.168106 0.246593 1.00103
                    CHANNELS 3 Zrotation Yrotation Xrotation
                    JOINT RightHandMiddle2
                    {
                      OFFSET -6.180828 -0.258836 -1.000895
                      CHANNELS 3 Zrotation Yrotation Xrotation
                      JOINT RightHandMiddle3
                      {
                        OFFSET -4.348901 0.0 -0.0
                        CHANNELS 3 Zrotation Yrotation Xrotation
                        JOINT RightHandMiddle4
                        {
                          OFFSET -3.00024 -4e-06 -2e-06
                          CHANNELS 3 Zrotation Yrotation Xrotation
                          JOINT RightHandMiddleEnd
                          {
                            OFFSET -2.30252 -0.29437 -0.031706
                            CHANNELS 3 Zrotation Yrotation Xrotation
                          }
                        }
                      }
                    }
                  }
                  JOINT RightHandRing1
                  {
                    OFFSET -2.88569 -0.067952 -0.308858
                    CHANNELS 3 Zrotation Yrotation Xrotation
                    JOINT RightHandRing2
                    {
                      OFFSET -5.854198 -0.48613 -1.373731
                      CHANNELS 3 Zrotation Yrotation Xrotation
                      JOINT RightHandRing3
                      {
                        OFFSET -4.33881 -4e-06 -0.0
                        CHANNELS 3 Zrotation Yrotation Xrotation
                        JOINT RightHandRing4
                        {
                          OFFSET -2.654903 -4e-06 4e-06
                          CHANNELS 3 Zrotation Yrotation Xrotation
                          JOINT RightHandRingEnd
                          {
                            OFFSET -1.933568 0.077527 -5.2e-05
                            CHANNELS 3 Zrotation Yrotation Xrotation
                          }
                        }
                      }
                    }
                  }
                  JOINT RightHandPinky1
                  {
                    OFFSET -2.866425 -0.342796 -1.584145
                    CHANNELS 3 Zrotation Yrotation Xrotation
                    JOINT RightHandPinky2
                    {
                      OFFSET -5.091371 -1.332055 -1.772385
                      CHANNELS 3 Zrotation Yrotation Xrotation
                      JOINT RightHandPinky3
                      {
                        OFFSET -3.062664 -4e-06 1e-06
                        CHANNELS 3 Zrotation Yrotation Xrotation
                        JOINT RightHandPinky4
                        {
                          OFFSET -1.546529 4e-06 -2e-06
                          CHANNELS 3 Zrotation Yrotation Xrotation
                          JOINT RightHandPinkyEnd
                          {
                            OFFSET -1.945119 -0.157718 0.057211
                            CHANNELS 3 Zrotation Yrotation Xrotation
                          }
                        }
                      }
                    }
                  }
                }
              }
            }
          }
        }
      }
    }
    JOINT LeftLeg
    {
      OFFSET 10.043214 -8.434526 2.595655
      CHANNELS 3 Zrotation Yrotation Xrotation
      JOINT LeftShin
      {
        OFFSET -1e-06 -43.221752 -0.802913
        CHANNELS 3 Zrotation Yrotation Xrotation
        JOINT LeftFoot
        {
          OFFSET 1e-06 -42.155094 -3.481523
          CHANNELS 3 Zrotation Yrotation Xrotation
          JOINT LeftToeBase
          {
            OFFSET 0.0 -5.059472 13.231529
            CHANNELS 3 Zrotation Yrotation Xrotation
            JOINT LeftToeEnd
            {
              OFFSET -0.009607 -1.647619 6.513017
              CHANNELS 3 Zrotation Yrotation Xrotation
            }
          }
        }
      }
    }
    JOINT RightLeg
    {
      OFFSET -10.047278 -8.29526 2.620317
      CHANNELS 3 Zrotation Yrotation Xrotation
      JOINT RightShin
      {
        OFFSET 1e-06 -43.362206 -0.805556
        CHANNELS 3 Zrotation Yrotation Xrotation
        JOINT RightFoot
        {
          OFFSET 2e-06 -42.117393 -3.478398
          CHANNELS 3 Zrotation Yrotation Xrotation
          JOINT RightToeBase
          {
            OFFSET -0.0 -5.079609 13.284196
            CHANNELS 3 Zrotation Yrotation Xrotation
            JOINT RightToeEnd
            {
              OFFSET 0.009532 -1.634378 6.460591
              CHANNELS 3 Zrotation Yrotation Xrotation
            }
          }
        }
      }
    }
  }
}
MOTION
Frames: 4
Frame Time: 0.03333333333333333
0.0 0.0 0.0 0.0 -0.0 0.0 4.601209 12.819606 1.009785 7.608925 5.607872 93.760551 -6.455763 1.286118 -11.075881 -3.663364 -0.141445 -6.712607 -16.451981 0.701459 9.604494 7.896001 4.480198 -33.342251 -2.078036 -3.430845 -3.747144 -6.851419 -1.367283 6.206398 7.6e-05 -2.3e-05 6e-06 0.61739 -0.498732 -0.407187 1.627008 -4.306343 -11.466691 -0.406882 3.338552 -11.279374 -4.578229 -11.71901 16.863884 -15.342316 -25.887623 -29.616346 -177.278259 -31.828461 179.492981 32.998463 4.751115 8.268989 -5.882107 9.861288 0.702588 -10.936872 -0.360574 7.156207 -1e-06 8.774826 -2e-06 -16.46011 16.713749 5.08567 -1.844033 2.498505 -2.507278 -10.163598 4.678946 4.62111 -20.976023 -1e-06 1e-06 -21.226288 2.451698 -3.594002 -1e-06 -7e-06 -0.0 -1.362682 2.240799 -0.746324 -21.334913 0.58491 3.008322 -13.821215 -2e-06 0.0 -23.887173 -0.249078 -0.839485 -58.140587 2.894853 -1.777583 -0.294025 1.679688 0.833256 -14.218208 0.093216 1.30058 -34.212048 -0.287563 0.967167 -20.033215 0.964536 1.212843 0.0 -1e-06 0.0 -3.440388 0.788234 0.501656 -15.928185 -3.167309 2.999706 -6.338827 -1e-06 2e-06 -18.123447 3.648185 -4.905671 -5e-06 0.0 -1e-06 -13.824711 11.691419 5.458907 5.7109 14.413415 -54.228977 -178.028137 41.844101 -179.823013 -5.195527 -2.587601 34.945065 2.243544 -5.255042 -3.180163 14.282904 -0.826594 6.952511 -5e-06 -12.690615 2e-06 16.502581 -16.943205 2.879612 1.665668 -1.955923 -2.878303 4.727802 -4.170591 4.99393 11.020536 5e-06 -3e-06 12.109062 -3.735717 -2.866789 0.0 0.0 0.0 1.291987 -1.928551 -1.498092 14.800144 0.56747 3.865612 14.242586 -1.341734 -6.660667 19.631987 0.14393 -0.648246 48.766186 -0.831014 -6.060431 0.353029 -1.511152 -0.03194 20.222809 3.684315 2.316631 18.787289 7e-06 -1e-06 10.751637 -0.479868 1.397908 -1e-06 0.0 0.0 3.27381 0.305947 -0.580112 21.486835 11.83039 2.266134 8.162935 1e-06 -0.0 18.399099 -3.798987 -4.94058 1e-06 0.0 -1e-06 -19.580544 71.631699 -104.123062 -6.496128 1.776374 114.050026 -1.274286 35.276379 2.815296 1.984856 -2.55774 -4.530563 0.0 -1e-06 3e-06 159.029938 65.918449 176.275665 -15.3322 -87.503616 20.409618 11.577764 -9.586485 12.067469 -0.919848 0.419387 -4.243012 1e-06 -0.0 -1e-06 
0.0 0.0 0.0 0.0 -0.0 0.0 4.981639 12.902194 1.359575 7.474958 6.423275 93.599815 -6.547153 1.567442 -11.174944 -3.878264 -0.070693 -6.80649 -16.583931 0.890361 9.694708 8.363109 4.095814 -33.022121 -2.184434 -3.688741 -3.728884 -7.156588 -1.370303 5.300889 7.6e-05 -2.3e-05 7e-06 0.634562 -0.532072 -0.395178 1.624081 -4.346481 -11.411752 -0.366458 3.30589 -11.196848 -4.553876 -11.84796 17.253668 -15.748313 -25.851095 -28.563396 -177.507202 -33.330997 179.363251 32.85342 2.83119 6.44992 -5.882111 9.86129 0.702589 -10.936881 -0.360576 7.156211 1e-06 8.774829 -2e-06 -16.381533 17.07688 5.23876 -1.844033 2.498506 -2.507278 -10.163608 4.678946 4.621111 -20.97604 -3e-06 6e-06 -21.226299 2.451698 -3.594001 -2e-06 -6e-06 -1e-06 -1.362682 2.240799 -0.746325 -21.33493 0.584908 3.008326 -13.821224 -3e-06 5e-06 -23.887184 -0.249078 -0.839481 -58.482582 2.913796 -1.769553 -0.294025 1.679688 0.833256 -14.218222 0.093214 1.300582 -34.212082 -0.287564 0.967176 -20.033232 0.964536 1.212846 1e-06 0.0 -0.0 -3.440391 0.788233 0.501655 -15.928201 -3.167312 2.999711 -6.338831 -1e-06 2e-06 -18.123459 3.648183 -4.905671 -3e-06 0.0 -3e-06 -14.308986 10.116261 5.647308 7.188564 18.094776 -52.789257 -178.357925 41.835262 179.736389 -5.768564 -4.253605 33.998947 2.243542 -5.25504 -3.18016 14.282896 -0.826591 6.952506 -4e-06 -12.690612 -1e-06 16.407448 -16.810301 2.774305 1.665667 -1.955923 -2.878301 4.7278 -4.170588 4.993925 11.020531 5e-06 -1e-06 12.109056 -3.735716 -2.866786 -1e-06 0.0 -0.0 1.291986 -1.92855 -1.49809 14.800136 0.567472 3.865609 14.242577 -1.341735 -6.660661 19.631973 0.14393 -0.648242 48.496666 -0.783485 -5.872937 0.353029 -1.511152 -0.03194 20.222801 3.684317 2.316632 18.787281 8e-06 1e-06 10.751633 -0.479866 1.397908 -2e-06 0.0 0.0 3.273808 0.305948 -0.580111 21.486828 11.830387 2.266135 8.16293 3e-06 0.0 18.399088 -3.798983 -4.940576 1e-06 -0.0 -1e-06 -20.432684 71.430351 -105.359299 -6.34537 1.653538 114.262749 -1.065776 35.985603 1.924072 1.922535 -2.545357 -4.575042 -0.0 -0.0 2e-06 159.659576 64.206795 175.946884 -120.968132 -88.959206 126.508781 11.421222 -9.135836 11.145692 -0.963275 0.41352 -3.266062 1e-06 0.0 -1e-06 
0.0 0.0 0.0 0.0 -0.0 0.0 6.209831 13.062829 2.067011 8.413991 7.261523 93.612755 -6.956856 1.696745 -10.895725 -3.927701 -0.23307 -6.763093 -16.752512 0.69108 9.742002 8.521739 4.101304 -32.265675 -2.637934 -4.466946 -3.578695 -7.187955 -1.9415 4.211442 7.8e-05 -2.4e-05 8e-06 0.599253 -0.507851 -0.350396 1.556814 -4.310529 -11.329672 -0.370478 3.318826 -11.10202 -4.599293 -12.749228 17.20015 -16.39913 -26.386244 -27.714178 -178.142746 -35.319302 179.369553 32.540981 0.767455 4.68716 -5.882109 9.86129 0.702591 -10.936877 -0.360576 7.156209 0.0 8.77483 -1e-06 -16.52828 17.175587 5.225335 -1.844032 2.498505 -2.507278 -10.163604 4.678946 4.62111 -20.976034 -4e-06 4e-06 -21.226295 2.451698 -3.594 -1e-06 -6e-06 -0.0 -1.362682 2.240799 -0.746322 -21.334925 0.584908 3.008325 -13.82122 -3e-06 4e-06 -23.887184 -0.249079 -0.839482 -58.940266 2.858209 -1.596396 -0.294024 1.679688 0.833257 -14.218215 0.093214 1.300583 -34.212067 -0.287565 0.967174 -20.033222 0.964537 1.212846 0.0 0.0 0.0 -3.440389 0.788233 0.501658 -15.928194 -3.167312 2.999707 -6.338829 -1e-06 2e-06 -18.123453 3.648184 -4.905673 -4e-06 0.0 -3e-06 -14.220709 8.358958 5.925315 10.281109 21.81831 -49.409199 -179.100464 41.20277 179.426727 -5.236616 -4.689342 30.635855 2.243541 -5.255039 -3.180158 14.282889 -0.826591 6.952502 -3e-06 -12.690609 -1e-06 16.454241 -17.141277 2.788856 1.665666 -1.955922 -2.878299 4.727798 -4.170588 4.993924 11.020526 4e-06 -1e-06 12.109051 -3.735715 -2.866786 0.0 -0.0 1e-06 1.291985 -1.92855 -1.498089 14.800131 0.567472 3.865607 14.242571 -1.341735 -6.660657 19.631966 0.143929 -0.648243 48.929138 -0.782341 -5.666313 0.353029 -1.511151 -0.03194 20.222792 3.684315 2.316632 18.78727 8e-06 -0.0 10.751628 -0.479868 1.397908 -0.0 1e-06 0.0 3.273807 0.305948 -0.58011 21.486818 11.830384 2.266137 8.162928 2e-06 0.0 18.39908 -3.798983 -4.940575 2e-06 0.0 -1e-06 -20.963272 70.465073 -105.99295 -6.189817 1.783747 114.637238 -1.295098 34.411453 1.149466 1.870834 -2.50819 -4.970599 -0.0 0.0 1e-06 160.090714 62.598618 175.106827 -163.62149 -84.638382 169.923248 10.835397 -9.007597 9.051912 -1.042996 0.444155 -3.81013 0.0 -0.0 -1e-06 
0.0 0.0 0.0 0.0 -0.0 0.0 7.722762 13.794989 2.833967 9.946911 8.28742 93.955246 -6.816948 1.545079 -10.595089 -4.10263 -0.373091 -6.747778 -16.977644 0.383514 10.256613 8.112073 4.039904 -31.701818 -2.866035 -4.857391 -3.66788 -7.529356 -2.712878 3.645317 7.7e-05 -2.4e-05 7e-06 0.597688 -0.501902 -0.392914 1.581542 -4.310875 -11.470589 -0.396751 3.326697 -11.230625 -5.247758 -13.652208 17.555738 -15.64795 -28.396912 -28.45586 -178.585602 -37.006531 179.416611 31.978296 -0.996593 2.875613 -5.882106 9.861284 0.702591 -10.936875 -0.360576 7.156209 2e-06 8.774825 -0.0 -16.698996 17.124874 5.060763 -1.844032 2.498504 -2.507278 -10.163603 4.678944 4.621109 -20.97603 -4e-06 6e-06 -21.226288 2.451697 -3.593997 0.0 -6e-06 -0.0 -1.362682 2.240798 -0.746324 -21.334921 0.584908 3.008326 -13.821217 -3e-06 5e-06 -23.887177 -0.249079 -0.839479 -58.942108 2.945752 -1.735643 -0.294025 1.679687 0.833255 -14.218214 0.093213 1.300582 -34.212063 -0.287565 0.967177 -20.033218 0.964537 1.212846 -0.0 -1e-06 -0.0 -3.44039 0.788233 0.501657 -15.928192 -3.167311 2.99971 -6.338828 -2e-06 2e-06 -18.123449 3.648182 -4.905666 -2e-06 0.0 -2e-06 -13.26854 7.863007 6.506874 15.596078 23.496298 -47.314503 179.551971 39.137051 179.183533 -4.873041 -4.458528 28.583843 2.243541 -5.255037 -3.180159 14.282896 -0.826592 6.952509 -6e-06 -12.690609 0.0 16.672386 -17.526094 2.810401 1.665666 -1.955922 -2.8783 4.727799 -4.170588 4.993926 11.02053 5e-06 0.0 12.109055 -3.735714 -2.866783 1e-06 0.0 0.0 1.291985 -1.92855 -1.49809 14.800134 0.567472 3.86561 14.242573 -1.341734 -6.660657 19.631969 0.143928 -0.64824 49.608341 -0.853575 -5.90473 0.353029 -1.511151 -0.03194 20.222801 3.684315 2.316635 18.787283 8e-06 3e-06 10.751631 -0.479866 1.39791 0.0 0.0 -1e-06 3.273808 0.305948 -0.58011 21.486826 11.830384 2.266139 8.16293 4e-06 1e-06 18.39909 -3.798985 -4.940572 2e-06 -1e-06 -1e-06 -22.446945 67.847351 -107.089462 -6.393844 1.75546 114.305115 -0.672547 36.234791 -0.062549 1.935596 -2.510546 -4.888122 -0.0 -0.0 2e-06 160.823151 61.334156 174.577469 -170.685135 -79.500603 177.59375 10.351473 -8.187151 7.670826 -1.116788 0.440451 -4.318552 0.0 -1e-06 -1e-06 
